<svg id="Layer_1" data-name="Layer 1" xmlns="http://www.w3.org/2000/svg" viewBox="0 0 57.72 45.13"><defs><style>.cls-1{fill:#fff;}.cls-2{fill:#010d0d;}</style></defs><path class="cls-1" d="M7.4,2.22,7,11.63l-.7,14.21L5.9,33c0,.33,0,.51,0,.71a3.82,3.82,0,0,0,0,.59,4.53,4.53,0,0,0,.25,1.16,5.85,5.85,0,0,0,1.16,2.08,6,6,0,0,0,4.23,2.09l6.93.06,14.23.09,20.56.18V2.22Z"/><path class="cls-2" d="M28.86,28.39l.08.1a2.28,2.28,0,0,0,.42.4,1.84,1.84,0,0,0,2.54-.5l10.1-15a1.3,1.3,0,0,0-2.11-1.52L30.48,24.1,21.8,11.15,21.71,11a2.45,2.45,0,0,0-3.89,3Z"/><path class="cls-2" d="M56.2,0H.79L.52,11.39.18,25.62,0,32.73c0,.26,0,.68,0,1.07A7.72,7.72,0,0,0,.11,35a10.71,10.71,0,0,0,.55,2.3,11.75,11.75,0,0,0,10.67,7.85l7.31-.06L32.87,45l24.85-.2V0ZM53.28,2.22V39.91l-20.56-.18-14.23-.09-6.92-.06a6,6,0,0,1-4.24-2.09,5.85,5.85,0,0,1-1.16-2.08,4.53,4.53,0,0,1-.25-1.16,3.82,3.82,0,0,1,0-.59c0-.2,0-.38,0-.71l.35-7.11L7,11.63,7.4,2.22Z"/></svg>