<svg id="Layer_1" data-name="Layer 1" xmlns="http://www.w3.org/2000/svg" viewBox="0 0 107.91 108.8"><defs><style>.cls-1{fill:#010d0d;}.cls-2{fill:#fff;}</style></defs><path class="cls-1" d="M107.9,9.9a9,9,0,0,0-.19-1.38,9.78,9.78,0,0,0-2.43-4.44,11.82,11.82,0,0,0-3.75-2.67A11.5,11.5,0,0,0,99.32.66,11.29,11.29,0,0,0,98.11.45c-.21,0-.41,0-.62,0L97,.37,93.9.31C89.8.22,85.69.11,81.59.09,73.39,0,65.19,0,57,0L32.37.07,20.07.2,13.92.26,10.84.3H10a9.48,9.48,0,0,0-1.3.1,10.46,10.46,0,0,0-2.52.69A10.21,10.21,0,0,0,.11,9c0,.21,0,.45-.07.68L0,10c0,.12,0,.23,0,.27v5.39L.06,28,.19,52.59.29,77.2l0,12.31,0,6.15v3.85c0,.33,0,.72,0,1.09a9.32,9.32,0,0,0,.52,2.28,9,9,0,0,0,6.77,5.77,9.45,9.45,0,0,0,2.21.14l1.55,0,3.07,0,12.3-.13,24.6-.34L76,108q12.3-.06,24.61,0a6.32,6.32,0,0,0,2.41-.58,6,6,0,0,0,2-1.54,8.7,8.7,0,0,0,1.7-3.77,17.06,17.06,0,0,0,.27-1.8c0-.29,0-.62.06-.92V95.58l.07-12.3c0-8.2.11-16.4.23-24.6l.3-24.61.14-12.3.07-6.15,0-3.07,0-1.54C107.9,10.8,107.93,10.38,107.9,9.9ZM102.31,100a11.93,11.93,0,0,1-.14,1.25,4.61,4.61,0,0,1-.68,1.83,1.46,1.46,0,0,1-.42.38,2,2,0,0,1-.56.17q-12.3.07-24.6,0l-24.62-.26L26.67,103l-12.31-.13-3.07,0H9.75a3.36,3.36,0,0,1-.85-.1,2.91,2.91,0,0,1-2.1-2,3.42,3.42,0,0,1-.13-.71l0-1.21,0-3.08.11-6.15.21-12.3.44-24.6L8,28.14l.22-12.3.05-3.07,0-1.54v-.77a.5.5,0,0,1,0-.11v0s0-.05,0-.09A1.86,1.86,0,0,1,9.43,8.84a2.33,2.33,0,0,1,.44-.1,1.85,1.85,0,0,1,.23,0h.74l3.08,0,6.15.06L32.37,9,57,9c8.21,0,16.41,0,24.61-.09,4.1,0,8.21-.13,12.31-.22L97,8.66l.4,0h.32a4,4,0,0,1,.71.16,3.51,3.51,0,0,1,2,1.55s0,.09,0,.13a1.62,1.62,0,0,1,0,.43l0,1.54.07,3.07.14,6.16L101,34l.58,24.62c.21,8.2.36,16.41.51,24.61l.2,12.31,0,3.07v.77C102.32,99.58,102.33,99.77,102.31,100Z"/><path class="cls-2" d="M8.9,102.76a3.36,3.36,0,0,0,.85.1h1.54l3.07,0,12.31.13,24.62.35,24.62.26q12.3,0,24.6,0a2,2,0,0,0,.56-.17,1.46,1.46,0,0,0,.42-.38,4.61,4.61,0,0,0,.68-1.83,11.93,11.93,0,0,0,.14-1.25c0-.22,0-.41,0-.62V98.6l0-3.07-.2-12.31c-.15-8.2-.3-16.41-.51-24.61L101,34l-.28-12.3-.14-6.16-.07-3.07,0-1.54a1.62,1.62,0,0,0,0-.43s0-.09,0-.13a3.51,3.51,0,0,0-2-1.55,4,4,0,0,0-.71-.16h-.32l-.4,0-3.07.06c-4.1.09-8.21.2-12.31.22C73.39,9.05,65.19,9,57,9L32.37,9l-12.3-.13-6.15-.06-3.08,0H10.1a1.85,1.85,0,0,0-.23,0,2.33,2.33,0,0,0-.44.1,1.86,1.86,0,0,0-1.14,1.38s0,.06,0,.09v0a.5.5,0,0,0,0,.11v.77l0,1.54-.05,3.07L8,28.14,7.5,52.75l-.44,24.6-.21,12.3L6.74,95.8l0,3.08,0,1.21a3.42,3.42,0,0,0,.13.71A2.91,2.91,0,0,0,8.9,102.76Z"/></svg>