<svg id="Layer_1" data-name="Layer 1" xmlns="http://www.w3.org/2000/svg" viewBox="0 0 74.04 61.49"><defs><style>.cls-1{fill:#010d0d;}.cls-2{fill:#fff;}</style></defs><path class="cls-1" d="M73.76,32.05l-.05-.27,0-.17-.18-.68-.34-1.36-1.81-7.08c.2-.27.39-.54.58-.82A16.68,16.68,0,0,0,73.1,19.5,11,11,0,0,0,73.86,17a14.44,14.44,0,0,0-2-9.77A14.06,14.06,0,0,0,68.52,3.4a15,15,0,0,0-4.43-2.31,21.84,21.84,0,0,0-4.68-1,24.13,24.13,0,0,0-4.73.05A18.3,18.3,0,0,0,50,1.22a15.28,15.28,0,0,0-2.21,1,12.46,12.46,0,0,0-2,1.48,11.08,11.08,0,0,0-1.66,1.89,10.93,10.93,0,0,0-1.09,2.29,8.87,8.87,0,0,0,0,4.95,13.92,13.92,0,0,0,3,5.29c-13.9,4.13-27.82,8.22-41.77,12.18A5.9,5.9,0,0,0,0,35.88a6.21,6.21,0,0,0,.26,1.87c.17.56.31.92.46,1.39l.89,2.66,1.77,5.33,1.83,5.31.94,2.64.47,1.32.24.66.06.17.1.23a3.33,3.33,0,0,0,.21.48,6.47,6.47,0,0,0,7,3.42,5.57,5.57,0,0,0,1-.28l.7-.26,1.31-.51,2.62-1,5.23-2C39.09,51.94,53,46.4,67,41l2.63-1.06A7,7,0,0,0,73,37a6.89,6.89,0,0,0,.91-4.37A5.48,5.48,0,0,0,73.76,32.05ZM18.21,55.14l-2.59,1.08-1.3.53-.61.26a1.91,1.91,0,0,1-.34.1A2.19,2.19,0,0,1,11,56a.89.89,0,0,1-.08-.17l-.05-.09-.06-.16L10.53,55,10,53.64,9,51,6.91,45.81,4.75,40.63,3.69,38l-.51-1.25A2.44,2.44,0,0,1,3,35.89a2.82,2.82,0,0,1,2.06-2.76C19.51,29.23,34,25.47,48.5,21.74l10.87-2.8,2.72-.7.68-.18.34-.08.17,0a1.9,1.9,0,0,1,.63,0,2,2,0,0,1,1.09.59,1.67,1.67,0,0,1,.33.5,1.72,1.72,0,0,1,.11.29l0,.17.08.35.66,2.95a23.17,23.17,0,0,1-2.8,2.6,4.14,4.14,0,0,0-1.33-1,3.91,3.91,0,0,0-1.24-.38,2.08,2.08,0,0,0-1.56.37,2.34,2.34,0,0,0-.8,1.33A5.25,5.25,0,0,0,58.35,27a7.3,7.3,0,0,0,.41,2.37,4.13,4.13,0,0,0,.65,1.15,2.58,2.58,0,0,0,1.2.8,2.79,2.79,0,0,0,2.56-.63,3.53,3.53,0,0,0,1.27-2.88A16.51,16.51,0,0,0,67,26.47l1,4.33.32,1.37.16.68,0,.17v.07a.66.66,0,0,1,0,.14,1.6,1.6,0,0,1-.24,1,1.57,1.57,0,0,1-.78.68L65,36C51.1,41.65,37.21,47.22,23.4,53ZM63.42,28.21a1.41,1.41,0,0,1,0,.2,2.14,2.14,0,0,1-.87,1.49,1.53,1.53,0,0,1-1.5.25,1.79,1.79,0,0,1-.83-1.25v0A14.91,14.91,0,0,0,63.42,28.21ZM60,27.8c0-.27,0-.54-.06-.8a2.13,2.13,0,0,1,.29-1.4c.11-.19.74-.18,1.33,0a3,3,0,0,1,.88.48C61.67,26.7,60.86,27.26,60,27.8ZM45,12.41A6.59,6.59,0,0,1,47.6,5.8a10.17,10.17,0,0,1,1.6-1A13,13,0,0,1,51,4.07,15.66,15.66,0,0,1,55,3.37a20,20,0,0,1,7.93,1.12,11.43,11.43,0,0,1,3.28,1.82,10.92,10.92,0,0,1,2.37,2.85A10.55,10.55,0,0,1,70,16.25a5.47,5.47,0,0,1-.19.8,2,2,0,0,0-.1-.21,6.71,6.71,0,0,0-7.32-3.5l-.52.13-.34.1-.67.2-2.69.79L47.45,17.73A13.33,13.33,0,0,1,45,12.41Z"/><path class="cls-1" d="M19.38,32.74a1,1,0,0,0-1.84.79,54.94,54.94,0,0,1,3,10.55c0,.15,0,.29.07.41-.42-.54-.87-1.17-1.25-1.71-1.73-2.4-3.69-5.13-5.45-6.07a1.79,1.79,0,0,0-2.11.07c-1.83,1.5-.2,8.39,1.49,13.91a1,1,0,0,0,1,.71,1,1,0,0,0,.29,0,1,1,0,0,0,.66-1.25C13.61,44.93,12.67,39.86,13,38.5c1.35.77,3.29,3.47,4.71,5.45,2.07,2.88,3,4.18,4.21,3.67,1-.43,1-1.65.56-3.9A55.92,55.92,0,0,0,19.38,32.74Z"/><path class="cls-1" d="M39.92,26.77c-1.24.42-.87,2.13-.7,2.95a11.27,11.27,0,0,1,.41,3.68A11.39,11.39,0,0,1,36.89,31c-.44-.46-1.59-1.69-2.7-1-.57.35-1.89,1.16,1.57,11a1,1,0,0,0,1,.67,1,1,0,0,0,.33-.06,1,1,0,0,0,.61-1.28,49.86,49.86,0,0,1-2.17-7.9c2.52,2.66,4,3.46,5.14,2.84s1.32-2.06.71-5.22a47.43,47.43,0,0,1,4,6.57,1,1,0,0,0,1.33.47,1,1,0,0,0,.48-1.33C47.06,35.67,42.34,26,39.92,26.77Z"/><path class="cls-1" d="M56.17,33.27a22.31,22.31,0,0,1-5.52,1.56,4.89,4.89,0,0,1,.46-.64c2.32-2.81,3-3.84,2.51-4.81s-1.43-.86-2.58-.85a14.25,14.25,0,0,1-2.52-.12,8.31,8.31,0,0,1-.92-.18,35.29,35.29,0,0,1,4.64-2.12l1.09-.44a1,1,0,1,0-.76-1.85l-1.07.43C47.09,26,45,27,45.21,28.57c.15,1.23,1.61,1.61,3,1.82a16.7,16.7,0,0,0,2.85.14h.35c-.35.52-1,1.32-1.85,2.39-.46.56-1.67,2-.82,3.18a2.19,2.19,0,0,0,1.88.7,18.94,18.94,0,0,0,6.28-1.67,1,1,0,0,0,.56-1.31A1,1,0,0,0,56.17,33.27Z"/><path class="cls-1" d="M28.87,32.93c-.44-.57-1.8-2.31-3.26-1.69-2.22.95-1.72,7.52-.92,12.87a1,1,0,0,0,1,.85h.15a1,1,0,0,0,.84-1.14c-.21-1.41-.37-2.82-.48-4.13a11.5,11.5,0,0,1,4.55-.84,40.61,40.61,0,0,1,2.8,4.48,1,1,0,0,0,1.8-.87C35.28,42.32,33.8,39.28,28.87,32.93Zm-2.8,4.66a12.91,12.91,0,0,1,.3-4.4,4.65,4.65,0,0,1,.92,1c.77,1,1.45,1.9,2.06,2.73A13.28,13.28,0,0,0,26.07,37.59Z"/><path class="cls-2" d="M68.54,33.13v-.07l0-.17-.16-.68L68,30.84l-1-4.33a16.51,16.51,0,0,1-2.6,1.36,3.53,3.53,0,0,1-1.27,2.88,2.79,2.79,0,0,1-2.56.63,2.58,2.58,0,0,1-1.2-.8,4.28,4.28,0,0,1-.65-1.15,7.3,7.3,0,0,1-.41-2.37,5.25,5.25,0,0,1,.14-1.27,2.31,2.31,0,0,1,.8-1.33,2.08,2.08,0,0,1,1.56-.37,3.91,3.91,0,0,1,1.24.38,4,4,0,0,1,1.33,1,23.17,23.17,0,0,0,2.8-2.6l-.66-2.95-.08-.35,0-.17a1.45,1.45,0,0,0-.11-.29,1.67,1.67,0,0,0-.33-.5A2,2,0,0,0,63.91,18a1.9,1.9,0,0,0-.63,0l-.17,0-.34.08-.68.18-2.72.7L48.5,21.78Q26.75,27.36,5.06,33.17A2.82,2.82,0,0,0,3,35.93a2.44,2.44,0,0,0,.18.89l.51,1.25,1.06,2.6,2.16,5.18L9,51.06l1,2.62L10.53,55l.25.65.06.16.05.09a.89.89,0,0,0,.08.17,2.19,2.19,0,0,0,2.4,1.09,1.35,1.35,0,0,0,.34-.11l.61-.25,1.3-.53,2.59-1.08L23.4,53C37.21,47.26,51.1,41.69,65,36l2.58-1a1.57,1.57,0,0,0,.78-.68,1.61,1.61,0,0,0,.24-1A.66.66,0,0,0,68.54,33.13ZM21.93,47.66c-1.2.51-2.14-.79-4.21-3.67-1.42-2-3.36-4.68-4.71-5.45-.34,1.36.6,6.43,2.18,11.6a1,1,0,0,1-.66,1.25,1,1,0,0,1-.29,0,1,1,0,0,1-1-.71C11.59,45.21,10,38.32,11.79,36.81a1.81,1.81,0,0,1,2.11-.06c1.76.94,3.72,3.66,5.45,6.07.38.54.83,1.17,1.25,1.71,0-.12-.05-.26-.07-.41a54.94,54.94,0,0,0-3-10.55,1,1,0,1,1,1.84-.79,55.92,55.92,0,0,1,3.11,11C22.91,46,22.94,47.23,21.93,47.66Zm12.94-3.84a1,1,0,0,1-1.33-.46,40.61,40.61,0,0,0-2.8-4.48,11.72,11.72,0,0,0-4.55.83c.11,1.32.27,2.73.48,4.14A1,1,0,0,1,25.83,45h-.15a1,1,0,0,1-1-.85c-.8-5.35-1.3-11.92.92-12.87,1.46-.63,2.82,1.11,3.26,1.69,4.93,6.35,6.41,9.39,6.47,9.52A1,1,0,0,1,34.87,43.82Zm11.76-6.68a1,1,0,0,1-1.33-.47,48.13,48.13,0,0,0-4-6.58c.61,3.17.39,4.66-.71,5.23s-2.62-.18-5.14-2.84a49.86,49.86,0,0,0,2.17,7.9A1,1,0,0,1,37,41.66a1,1,0,0,1-.33.06,1,1,0,0,1-1-.67c-3.46-9.86-2.14-10.66-1.57-11,1.11-.67,2.26.55,2.7,1a11.3,11.3,0,0,0,2.74,2.39,11.27,11.27,0,0,0-.41-3.68c-.17-.82-.54-2.53.7-3,2.42-.81,7.14,8.9,7.19,9A1,1,0,0,1,46.63,37.14Zm10.28-2a18.7,18.7,0,0,1-6.28,1.67,2.18,2.18,0,0,1-1.88-.69c-.85-1.16.36-2.63.82-3.18.88-1.07,1.5-1.87,1.85-2.39h-.35a16.7,16.7,0,0,1-2.85-.14c-1.4-.21-2.86-.59-3-1.82-.18-1.55,1.88-2.55,6.29-4.32l1.07-.43a1,1,0,1,1,.76,1.85l-1.09.44a35.29,35.29,0,0,0-4.64,2.12,8.31,8.31,0,0,0,.92.18,15.27,15.27,0,0,0,2.52.12c1.15,0,2.15,0,2.58.85s-.19,2-2.51,4.81a4.89,4.89,0,0,0-.46.64,22.31,22.31,0,0,0,5.52-1.56,1,1,0,1,1,.74,1.85Z"/><path class="cls-2" d="M26.37,33.23a12.87,12.87,0,0,0-.3,4.39,13.81,13.81,0,0,1,3.28-.7c-.61-.83-1.29-1.73-2.06-2.73A4.65,4.65,0,0,0,26.37,33.23Z"/></svg>