<svg id="Layer_1" data-name="Layer 1" xmlns="http://www.w3.org/2000/svg" viewBox="0 0 69.42 67.16"><defs><style>.cls-1{fill:#fff;}.cls-2{fill:#010d0d;}</style></defs><path class="cls-1" d="M25.77,51.64a.68.68,0,0,0-.45-.15H19.56a3.44,3.44,0,0,1-.42,0,2.66,2.66,0,0,1-2.06-1.66,2.84,2.84,0,0,1-.18-.92,3.55,3.55,0,0,1,0-.46l.05-.31L17.17,47l.38-2.17.09-.54a1.48,1.48,0,0,0,0-.24.06.06,0,0,0,0-.06.35.35,0,0,0-.1-.2.28.28,0,0,0-.19-.07H16.5l-7,0-.36,1.09c-.62,1.86-1.2,3.73-1.79,5.59s-1.18,3.74-1.74,5.61L5.29,57l6.86,4.32,2.56-.75,5.63-1.66L23.15,58l1.41-.42.7-.21.18-.06.07,0,.11-.06a1,1,0,0,0,.2-.14l.09-.08L26,57l0-1.75L26,53V52.2a.57.57,0,0,0,0-.13A.8.8,0,0,0,25.77,51.64Z"/><path class="cls-1" d="M55.05,5.67,52.76,7.5l-9.17,7.34L25.25,29.54l-9.12,7.4-4.56,3.71-.21.18,5.2.25.55,0h.27a4.62,4.62,0,0,1,.48.05,2.91,2.91,0,0,1,1.67,1A2.88,2.88,0,0,1,20.16,44a2.63,2.63,0,0,1-.05.49l-.06.3-.13.53-.49,2.15-.25,1.07-.05.23a.22.22,0,0,0,0,.08.86.86,0,0,0,0,.16.52.52,0,0,0,.2.28.51.51,0,0,0,.17.07l.12,0,.28,0,2.19.12,2.19.12,1.11.06a2.56,2.56,0,0,1,1.54.66,2.49,2.49,0,0,1,.75,1.48,2.88,2.88,0,0,1,0,.41l0,.29,0,.54-.15,2.16L29,53.6l3.91-4.38c2.6-2.93,5.23-5.83,7.86-8.73C46,34.72,51.36,29,56.8,23.36l4.07-4.24,2-2.11.25-.27,0,0s0,0,.05-.06a.49.49,0,0,0,0-.34s0,0,0-.08l-.4-.58-1.68-2.41L57.81,8.41,56.15,6,56,5.84s0,0,0-.06a.28.28,0,0,0-.1-.09.7.7,0,0,0-.85,0Z"/><path class="cls-2" d="M68.88,13.93a6.13,6.13,0,0,0-.67-1.2l-.45-.61L66,9.75,62.51,5,60.76,2.69l-.13-.17-.21-.26c-.14-.17-.29-.33-.45-.49a5.94,5.94,0,0,0-1-.82A6.28,6.28,0,0,0,56.45.06a6.18,6.18,0,0,0-4.89,1.45L49.35,3.45l-8.8,7.78L22.93,26.78l-8.86,7.71L9.63,38.34l-1.14,1A4.85,4.85,0,0,0,7.27,41a2.92,2.92,0,0,0-.19.49L7,41.86l-.21.7L6.31,44c-.57,1.88-1.17,3.74-1.77,5.6S3.33,53.29,2.7,55.14L.83,60.71.37,62.1l-.12.35c0,.14-.07.17-.14.44A3.35,3.35,0,0,0,.05,64.3a3.39,3.39,0,0,0,1.49,2.3,3.45,3.45,0,0,0,2.74.45l11.43-2.74L21.43,63l2.86-.65L25.72,62l.72-.17.18,0,.28-.07.57-.21a5.62,5.62,0,0,0,1.08-.58l.49-.37.22-.21.19-.18,1-1,2.1-2.06,4.18-4.13c2.79-2.75,5.55-5.52,8.31-8.3q8.25-8.37,16.29-16.93l4-4.28,2-2.14.25-.27c.15-.18.31-.35.45-.53a6.8,6.8,0,0,0,.71-1.19,6.4,6.4,0,0,0,.61-2.68A6.33,6.33,0,0,0,68.88,13.93Zm-5.64,2.72s0,0-.05.06l0,0-.25.27-2,2.11L56.8,23.36C51.36,29,46,34.72,40.72,40.49c-2.63,2.9-5.26,5.8-7.86,8.73L29,53.6l-1.46,1.64.15-2.16,0-.54,0-.29a2.88,2.88,0,0,0,0-.41,2.49,2.49,0,0,0-.75-1.48,2.56,2.56,0,0,0-1.54-.66l-1.11-.06-2.19-.12L19.9,49.4l-.28,0-.12,0a.51.51,0,0,1-.17-.07.52.52,0,0,1-.2-.28.86.86,0,0,1,0-.16.22.22,0,0,1,0-.08l.05-.23.25-1.07.49-2.15.13-.53.06-.3a2.63,2.63,0,0,0,.05-.49,2.88,2.88,0,0,0-.63-1.82,2.91,2.91,0,0,0-1.67-1,4.62,4.62,0,0,0-.48-.05h-.27l-.55,0-5.2-.25.21-.18,4.56-3.71,9.12-7.4,18.34-14.7L52.76,7.5l2.29-1.83a.7.7,0,0,1,.85,0,.28.28,0,0,1,.1.09s0,0,0,.06l.11.15,1.66,2.42,3.35,4.83,1.68,2.41.4.58s0,.05,0,.08a.49.49,0,0,1,0,.34ZM5.56,56.05c.56-1.87,1.15-3.74,1.74-5.61s1.17-3.73,1.79-5.59l.36-1.09,7.05,0h.89a.28.28,0,0,1,.19.07.35.35,0,0,1,.1.2.06.06,0,0,1,0,.06,1.48,1.48,0,0,1,0,.24l-.09.54L17.17,47,17,48.09l-.05.31a3.55,3.55,0,0,0,0,.46,2.84,2.84,0,0,0,.18.92,2.66,2.66,0,0,0,2.06,1.66,3.44,3.44,0,0,0,.42,0h5.76a.68.68,0,0,1,.45.15.8.8,0,0,1,.26.43.57.57,0,0,1,0,.13V53l0,2.19L26,57l-.06.07-.09.08a1,1,0,0,1-.2.14l-.11.06-.07,0-.18.06-.7.21L23.15,58l-2.81.85-5.63,1.66-2.56.75L5.29,57Z"/></svg>