<svg id="Layer_1" data-name="Layer 1" xmlns="http://www.w3.org/2000/svg" viewBox="0 0 41.66 41.92"><defs><style>.cls-1{fill:#df5e3b;}.cls-2{fill:#e9a042;}</style></defs><path class="cls-1" d="M37.59,3H36.54L31.93,3,22.7,2.91H13.47L4.25,3s0,0-.13,0l-.23.12a1.82,1.82,0,0,0-.42.41.85.85,0,0,0-.17.39v.91l.07,4.61.16,9.23L3.93,37a1.92,1.92,0,0,0,.45.47c.12.08.25.12.26.1s0,0,0,0h.66l4.61-.08c3.07-.08,6.15-.09,9.22-.11s6.15,0,9.23.06l9,.13a.18.18,0,0,0,.13-.06s0,0,0,0h0s0,0,0-.09v-.15l0-1.15.1-4.61.2-9.22L38.05,13l.18-9.18a.69.69,0,0,0-.29-.63A.7.7,0,0,0,37.59,3Z"/><path class="cls-2" d="M41.66,37.39v-1.3l0-4.61-.08-9.23L41.4,3.75A3.82,3.82,0,0,0,39.54.53,3.73,3.73,0,0,0,37.71,0H36.45L31.84,0,22.62.1H13.4L4.17.05a3.57,3.57,0,0,0-1,.18A5,5,0,0,0,2.36.6,4.76,4.76,0,0,0,1.08,1.73,3.91,3.91,0,0,0,.3,3.41a3.61,3.61,0,0,0,0,.53V4.8l0,4.62,0,9.22L0,37.27a4.38,4.38,0,0,0,.65,2,5.43,5.43,0,0,0,1.21,1.4,4.7,4.7,0,0,0,1.78.93,5,5,0,0,0,.58.11l.31,0h.76l4.61.09c3.07.07,6.15.08,9.22.1s6.15,0,9.23-.06L33,41.8l2.31,0,1.15,0h1.09l.28,0a4.37,4.37,0,0,0,3.47-2.49,4.52,4.52,0,0,0,.34-1.06,5.16,5.16,0,0,0,.06-.58A1.11,1.11,0,0,0,41.66,37.39ZM38.05,13l-.21,9.22-.2,9.22L37.54,36l0,1.15v.15s0,.12,0,.09h0s0,0,0,0a.18.18,0,0,1-.13.06l-9-.13c-3.08,0-6.15-.06-9.23-.06s-6.15,0-9.22.11l-4.61.08H4.63s0,0,0,0-.14,0-.26-.1A1.92,1.92,0,0,1,3.93,37L3.54,18.68,3.38,9.45,3.31,4.84V3.93a.85.85,0,0,1,.17-.39,1.82,1.82,0,0,1,.42-.41L4.12,3c.08,0,.14,0,.13,0l9.22-.06H22.7L31.93,3l4.61,0h1.05a.7.7,0,0,1,.35.12.69.69,0,0,1,.29.63Z"/><path class="cls-2" d="M9.24,13.84v-2.7a1,1,0,0,1,.94-1L30.91,8.28a1,1,0,0,1,1.1.8l.52,2.31A1,1,0,0,1,31,12.49l-1.51-1a1,1,0,0,0-.66-.17l-5.63.56A1,1,0,0,0,22.23,13l1.55,17a1.07,1.07,0,0,0,.3.63l1,1a1,1,0,0,1-.66,1.77l-4.33.27a1,1,0,0,1-.82-1.75l.5-.51a1.05,1.05,0,0,0,.29-.79L19,13.29a1,1,0,0,0-1.15-1l-5.18.61a1.07,1.07,0,0,0-.72.42l-.79,1.1A1,1,0,0,1,9.24,13.84Z"/></svg>