<svg id="Layer_1" data-name="Layer 1" xmlns="http://www.w3.org/2000/svg" viewBox="0 0 70.31 58.53"><defs><style>.cls-1{fill:#fff;}.cls-2{fill:#010d0d;}</style></defs><path class="cls-1" d="M63.79,10.86a4.81,4.81,0,0,0-1.65-1,11.24,11.24,0,0,0-2.41-.53,25.58,25.58,0,0,0-5.65.09c-1.95.22-3.93.55-5.92.94s-4.19.78-6.35,1A56.49,56.49,0,0,1,35.1,12a20.76,20.76,0,0,1-3.81-.32,14.31,14.31,0,0,1-3.8-1.32c-1.08-.54-1.91-1-2.77-1.42a26.56,26.56,0,0,0-2.63-1.11c-.88-.36-1.85-.61-2.78-.92s-1.94-.5-2.91-.75a6.06,6.06,0,0,0-4.18.44A9.68,9.68,0,0,0,8.65,9.87,24,24,0,0,0,5,20.51,28.63,28.63,0,0,0,6,32.06a16.74,16.74,0,0,0,6.32,9.08,26.89,26.89,0,0,0,5.34,2.5c.51.2,1,.39,1.52.62L20.7,45c.49.26,1,.48,1.47.77l1.41.88.7.45.67.5c.45.34.91.66,1.34,1,.84.72,1.67,1.46,2.43,2.21a18.5,18.5,0,0,0,4.65,3.66,6.36,6.36,0,0,0,1.3.5l.66.21.71.12c.48.07.94.19,1.43.22l1.49.07a42,42,0,0,0,6.09-.35c1-.09,2.05-.25,3.08-.42s2.06-.31,3.06-.5A34.07,34.07,0,0,0,57,52.72a15.11,15.11,0,0,0,4.82-2.88,9,9,0,0,0,2.57-4.45,16.24,16.24,0,0,0,.16-5.59c-.22-2-.63-4-1.05-6a46.61,46.61,0,0,1-1-6.58,15.58,15.58,0,0,1,.19-3.7,12.7,12.7,0,0,1,.5-1.95l.49-1.43a22,22,0,0,0,1.18-5.49,7.19,7.19,0,0,0-.21-2.26A3.23,3.23,0,0,0,63.79,10.86Z"/><path class="cls-2" d="M67.9,23.32l.6-1.53A27,27,0,0,0,70.24,15,12.34,12.34,0,0,0,70,11a8.86,8.86,0,0,0-2.1-4,10.34,10.34,0,0,0-3.59-2.47,19.42,19.42,0,0,0-3.7-1.07,37.84,37.84,0,0,0-7-.4A62.52,62.52,0,0,0,47,3.6l-6.15.9A54.92,54.92,0,0,1,35,5.08,13.2,13.2,0,0,1,32.5,5a7.5,7.5,0,0,1-2.17-.66C29.49,4,28.46,3.44,27.4,3s-2.17-.86-3.26-1.19S22,1.19,20.87.9,18.7.45,17.61.22A12.05,12.05,0,0,0,9.53,1.48,15.32,15.32,0,0,0,4.05,6.84a29.14,29.14,0,0,0-4,13.23A33.36,33.36,0,0,0,1.85,33.49a24.28,24.28,0,0,0,3.23,6.12,18.29,18.29,0,0,0,5.16,4.79A27.78,27.78,0,0,0,16.44,47c.48.16,1,.3,1.44.48l1.39.58c.46.2.94.37,1.39.59l1.32.69a24.23,24.23,0,0,1,4.91,3.48,25.11,25.11,0,0,0,5.27,4.1,8.57,8.57,0,0,0,1.63.69l.84.29.84.17c.56.1,1.13.25,1.69.3l1.66.13a44.39,44.39,0,0,0,6.54-.19c1.08-.07,2.14-.2,3.2-.35s2.11-.26,3.18-.43A40.53,40.53,0,0,0,58.19,56a18.67,18.67,0,0,0,6.1-3.37,12.78,12.78,0,0,0,3.91-6.2,20.63,20.63,0,0,0,.56-7c-.15-2.25-.5-4.39-.82-6.46a43.12,43.12,0,0,1-.62-6,11.13,11.13,0,0,1,.24-2.59A7.43,7.43,0,0,1,67.9,23.32ZM57,52.72a34.07,34.07,0,0,1-5.79,1.6c-1,.19-2,.33-3.06.5s-2.06.33-3.08.42a42,42,0,0,1-6.09.35l-1.49-.07c-.49,0-.95-.15-1.43-.22l-.71-.12L34.67,55a6.36,6.36,0,0,1-1.3-.5,18.5,18.5,0,0,1-4.65-3.66c-.76-.75-1.59-1.49-2.43-2.21-.43-.34-.89-.66-1.34-1l-.67-.5-.7-.45-1.41-.88c-.48-.29-1-.51-1.47-.77l-1.49-.74c-.5-.23-1-.42-1.52-.62a26.89,26.89,0,0,1-5.34-2.5A16.74,16.74,0,0,1,6,32.06,28.63,28.63,0,0,1,5,20.51,24,24,0,0,1,8.65,9.87a9.68,9.68,0,0,1,3.57-3.28,6.06,6.06,0,0,1,4.18-.44c1,.25,2,.49,2.91.75s1.9.56,2.78.92a26.56,26.56,0,0,1,2.63,1.11c.86.41,1.69.88,2.77,1.42a14.31,14.31,0,0,0,3.8,1.32A20.76,20.76,0,0,0,35.1,12a56.49,56.49,0,0,0,6.71-.57c2.16-.26,4.26-.69,6.35-1s4-.72,5.92-.94a25.58,25.58,0,0,1,5.65-.09,11.24,11.24,0,0,1,2.41.53,4.81,4.81,0,0,1,1.65,1,3.23,3.23,0,0,1,.86,1.48,7.19,7.19,0,0,1,.21,2.26,22,22,0,0,1-1.18,5.49l-.49,1.43a12.7,12.7,0,0,0-.5,1.95,15.58,15.58,0,0,0-.19,3.7,46.61,46.61,0,0,0,1,6.58c.42,2.08.83,4.09,1.05,6a16.24,16.24,0,0,1-.16,5.59,9,9,0,0,1-2.57,4.45A15.11,15.11,0,0,1,57,52.72Z"/></svg>