<svg id="Layer_1" data-name="Layer 1" xmlns="http://www.w3.org/2000/svg" viewBox="0 0 56.92 47.97"><defs><style>.cls-1{fill:#fff;}.cls-2{fill:#010d0d;}</style></defs><path class="cls-1" d="M38.46,8.23l-14.23-.1-7.11,0-3.56,0a4.93,4.93,0,0,0-2,.35,5.05,5.05,0,0,0-2.78,2.76,4.71,4.71,0,0,0-.29,1,7.28,7.28,0,0,0-.11,1.26L8.23,17,7.54,31.17,6.83,45.75H52.48V8.28Q45.48,8.28,38.46,8.23Z"/><path class="cls-2" d="M42.14,32.5l-11-14.38L31,18a1.79,1.79,0,0,0-.43-.39,1.82,1.82,0,0,0-2.53.49L18,33.18a1.31,1.31,0,0,0,.29,1.75,1.29,1.29,0,0,0,1.82-.24l9.41-12.27,8.68,12.94.09.13a2.45,2.45,0,1,0,3.89-3Z"/><path class="cls-2" d="M38.46.06,24.23.15,17.12.2l-3.56,0a12.57,12.57,0,0,0-5,1A12.78,12.78,0,0,0,1.7,8.39,12.35,12.35,0,0,0,1,10.84a15.29,15.29,0,0,0-.19,2.28L.75,16.68.41,30.91,0,48H56.92V0C50.77,0,44.62,0,38.46.06Zm14,45.69H6.83l.71-14.58L8.23,17l.18-3.55a7.28,7.28,0,0,1,.11-1.26,4.71,4.71,0,0,1,.29-1,5.05,5.05,0,0,1,2.78-2.76,4.93,4.93,0,0,1,2-.35l3.56,0,7.11,0,14.23.1q7,.06,14,0Z"/></svg>