<svg id="Layer_1" data-name="Layer 1" xmlns="http://www.w3.org/2000/svg" viewBox="0 0 57.72 93.1"><defs><style>.cls-1{fill:#fff;}.cls-2{fill:#010d0d;}</style></defs><path class="cls-1" d="M39.26,8.23,25,8.13l-7.12,0-3.56,0a5,5,0,0,0-2,.35,5.07,5.07,0,0,0-2.77,2.76,4.16,4.16,0,0,0-.29,1A7,7,0,0,0,9.2,13.4L9,17l-.7,14.22L7.62,45.75H53.28V8.28Q46.26,8.28,39.26,8.23Z"/><path class="cls-1" d="M7,59.6l-.7,14.21L5.9,80.92c0,.33,0,.51,0,.71a2.88,2.88,0,0,0,0,.59,4.13,4.13,0,0,0,.24,1.16,5.85,5.85,0,0,0,1.16,2.08,6.07,6.07,0,0,0,4.24,2.1l6.92,0,14.23.1,20.56.17V50.19H7.4Z"/><path class="cls-2" d="M31.82,18a1.79,1.79,0,0,0-.43-.39,1.82,1.82,0,0,0-2.53.49L18.76,33.18a1.3,1.3,0,0,0,2.11,1.51l9.41-12.27L39,35.36a1,1,0,0,0,.09.13,2.45,2.45,0,1,0,3.89-3l-11-14.38Z"/><path class="cls-2" d="M28.86,76.36l.08.1a2.28,2.28,0,0,0,.42.4,1.84,1.84,0,0,0,2.54-.5l10.1-15a1.3,1.3,0,0,0-2.11-1.52L30.48,72.07,21.8,59.12a1,1,0,0,0-.09-.13,2.45,2.45,0,1,0-3.89,3Z"/><path class="cls-2" d="M39.26.06,25,.15,17.91.2l-3.56,0A13,13,0,0,0,10,1c-.21.08-.43.14-.63.23a12.85,12.85,0,0,0-6.9,7.15,11.68,11.68,0,0,0-.66,2.45,17,17,0,0,0-.2,2.28l-.08,3.56L1.21,30.91.79,48,.52,59.36.18,73.59,0,80.7c0,.26,0,.68,0,1.07A7.72,7.72,0,0,0,.11,83a10.71,10.71,0,0,0,.55,2.3,11.67,11.67,0,0,0,2.4,4,11.17,11.17,0,0,0,2.22,1.89A12.55,12.55,0,0,0,7,92.09a11.67,11.67,0,0,0,4.37,1L18.64,93l14.23-.1,24.85-.2V0C51.56,0,45.41,0,39.26.06Zm14,87.82-20.56-.17-14.23-.1-6.92,0a6.07,6.07,0,0,1-4.24-2.1,5.85,5.85,0,0,1-1.16-2.08,4.13,4.13,0,0,1-.24-1.16,2.88,2.88,0,0,1,0-.59c0-.2,0-.38,0-.71l.35-7.11L7,59.6l.45-9.41H53.28Zm0-42.13H7.62l.71-14.58L9,17,9.2,13.4a7,7,0,0,1,.12-1.26,4.16,4.16,0,0,1,.29-1,5.07,5.07,0,0,1,2.77-2.76,5,5,0,0,1,2-.35l3.56,0,7.12,0,14.23.1q7,.06,14,0Z"/></svg>