<svg id="Layer_1" data-name="Layer 1" xmlns="http://www.w3.org/2000/svg" viewBox="0 0 446.52 92.89"><defs><style>.cls-1{fill:#fff;}.cls-2{fill:#010d0d;}</style></defs><path class="cls-1" d="M434.44,8.19c-.39-.09-6-.12-6-.12H14.32a4.93,4.93,0,0,0-2,.35,5,5,0,0,0-2.77,2.75,4.53,4.53,0,0,0-.29,1C9.22,12.51,9,17,9,17S5.88,81.84,5.91,82a5.2,5.2,0,0,0,.24,1.16,6,6,0,0,0,5.38,4.16s386.72.88,424.56.72c1.52-.12,2.59-1,3.23-2.89a12.63,12.63,0,0,0,.61-3c.05-.53.11-3.35.11-3.35L439.62,15s-.06-2.36-.15-2.66a4.7,4.7,0,0,0-1-1.72A8.12,8.12,0,0,0,434.44,8.19Z"/><path class="cls-2" d="M446.28,10.74a11.77,11.77,0,0,0-2.16-4.58A15.24,15.24,0,0,0,436.48,1a13.61,13.61,0,0,0-2.35-.51c-.4,0-.81-.08-1.23-.1l-.95,0-3.55,0L414.21.09C395.29-.08,86.46.05,67.54,0,58.08.06,48.61,0,39.15.1L25,.19l-7.1,0-3.54,0A12.7,12.7,0,0,0,2.49,8.41a12.08,12.08,0,0,0-.67,2.44,15.29,15.29,0,0,0-.19,2.28l-.09,3.54L1.2,30.86.52,59.24.18,73.43,0,80.53c0,.25,0,.67,0,1.06a7.72,7.72,0,0,0,.1,1.18,10.62,10.62,0,0,0,.55,2.29A11.7,11.7,0,0,0,11.3,92.89l7.29-.06,14.19-.09c37.84-.3,365.58-.72,403.43-.55a7.49,7.49,0,0,0,4.54-1.74,9,9,0,0,0,2.55-3.78,17.11,17.11,0,0,0,.93-4c.07-.65.12-1.3.15-2l0-1.78.38-14.19c.24-9.45.63-18.91.93-28.37l.49-14.18.23-7.09.06-1.78A9.87,9.87,0,0,0,446.28,10.74Zm-6.35,71.5a12.63,12.63,0,0,1-.61,3c-.64,1.85-1.71,2.77-3.23,2.89-37.84.16-424.56-.72-424.56-.72A6,6,0,0,1,6.15,83.2,5.2,5.2,0,0,1,5.91,82C5.88,81.84,9,17,9,17s.22-4.44.29-4.8a4.53,4.53,0,0,1,.29-1,5,5,0,0,1,2.77-2.75,4.93,4.93,0,0,1,2-.35H428.4s5.65,0,6,.12a8.12,8.12,0,0,1,4.06,2.43,4.7,4.7,0,0,1,1,1.72c.09.3.15,2.66.15,2.66L440,78.89S440,81.71,439.93,82.24Z"/></svg>